<svg width="1363" height="163" viewBox="0 0 1363 163" fill="none" xmlns="http://www.w3.org/2000/svg">
<path d="M0 15C0 6.71573 6.71573 0 15 0H37V163H15C6.71573 163 0 156.284 0 148V15Z" fill="#424242"/>
<rect width="1097" height="163" transform="translate(37)" fill="#F0F0F0"/>
<path d="M101.906 53.9219L94.3945 51.2383V48.0859L104.602 52.375V54.6367L101.906 53.9219ZM94.3945 56.1719L101.918 53.4297L104.602 52.7852V55.0352L94.3945 59.3242V56.1719ZM126.422 52.082V58.8438C126.156 59.1641 125.746 59.5117 125.191 59.8867C124.637 60.2539 123.922 60.5703 123.047 60.8359C122.172 61.1016 121.113 61.2344 119.871 61.2344C118.77 61.2344 117.766 61.0547 116.859 60.6953C115.953 60.3281 115.172 59.793 114.516 59.0898C113.867 58.3867 113.367 57.5273 113.016 56.5117C112.664 55.4883 112.488 54.3203 112.488 53.0078V51.9414C112.488 50.6289 112.656 49.4609 112.992 48.4375C113.336 47.4141 113.824 46.5508 114.457 45.8477C115.09 45.1445 115.844 44.6094 116.719 44.2422C117.594 43.875 118.566 43.6914 119.637 43.6914C121.121 43.6914 122.34 43.9336 123.293 44.418C124.246 44.8945 124.973 45.5586 125.473 46.4102C125.98 47.2539 126.293 48.2227 126.41 49.3164H123C122.914 48.7383 122.75 48.2344 122.508 47.8047C122.266 47.375 121.918 47.0391 121.465 46.7969C121.02 46.5547 120.441 46.4336 119.73 46.4336C119.145 46.4336 118.621 46.5547 118.16 46.7969C117.707 47.0312 117.324 47.3789 117.012 47.8398C116.699 48.3008 116.461 48.8711 116.297 49.5508C116.133 50.2305 116.051 51.0195 116.051 51.918V53.0078C116.051 53.8984 116.137 54.6875 116.309 55.375C116.48 56.0547 116.734 56.6289 117.07 57.0977C117.414 57.5586 117.836 57.9062 118.336 58.1406C118.836 58.375 119.418 58.4922 120.082 58.4922C120.637 58.4922 121.098 58.4453 121.465 58.3516C121.84 58.2578 122.141 58.1445 122.367 58.0117C122.602 57.8711 122.781 57.7383 122.906 57.6133V54.5898H119.695V52.082H126.422ZM128.508 54.7891V54.543C128.508 53.6133 128.641 52.7578 128.906 51.9766C129.172 51.1875 129.559 50.5039 130.066 49.9258C130.574 49.3477 131.199 48.8984 131.941 48.5781C132.684 48.25 133.535 48.0859 134.496 48.0859C135.457 48.0859 136.312 48.25 137.062 48.5781C137.812 48.8984 138.441 49.3477 138.949 49.9258C139.465 50.5039 139.855 51.1875 140.121 51.9766C140.387 52.7578 140.52 53.6133 140.52 54.543V54.7891C140.52 55.7109 140.387 56.5664 140.121 57.3555C139.855 58.1367 139.465 58.8203 138.949 59.4062C138.441 59.9844 137.816 60.4336 137.074 60.7539C136.332 61.0742 135.48 61.2344 134.52 61.2344C133.559 61.2344 132.703 61.0742 131.953 60.7539C131.211 60.4336 130.582 59.9844 130.066 59.4062C129.559 58.8203 129.172 58.1367 128.906 57.3555C128.641 56.5664 128.508 55.7109 128.508 54.7891ZM131.883 54.543V54.7891C131.883 55.3203 131.93 55.8164 132.023 56.2773C132.117 56.7383 132.266 57.1445 132.469 57.4961C132.68 57.8398 132.953 58.1094 133.289 58.3047C133.625 58.5 134.035 58.5977 134.52 58.5977C134.988 58.5977 135.391 58.5 135.727 58.3047C136.062 58.1094 136.332 57.8398 136.535 57.4961C136.738 57.1445 136.887 56.7383 136.98 56.2773C137.082 55.8164 137.133 55.3203 137.133 54.7891V54.543C137.133 54.0273 137.082 53.543 136.98 53.0898C136.887 52.6289 136.734 52.2227 136.523 51.8711C136.32 51.5117 136.051 51.2305 135.715 51.0273C135.379 50.8242 134.973 50.7227 134.496 50.7227C134.02 50.7227 133.613 50.8242 133.277 51.0273C132.949 51.2305 132.68 51.5117 132.469 51.8711C132.266 52.2227 132.117 52.6289 132.023 53.0898C131.93 53.543 131.883 54.0273 131.883 54.543ZM142.805 43.9375H149.168C150.473 43.9375 151.594 44.1328 152.531 44.5234C153.477 44.9141 154.203 45.4922 154.711 46.2578C155.219 47.0234 155.473 47.9648 155.473 49.082C155.473 49.9961 155.316 50.7812 155.004 51.4375C154.699 52.0859 154.266 52.6289 153.703 53.0664C153.148 53.4961 152.496 53.8398 151.746 54.0977L150.633 54.6836H145.102L145.078 51.9414H149.191C149.809 51.9414 150.32 51.832 150.727 51.6133C151.133 51.3945 151.438 51.0898 151.641 50.6992C151.852 50.3086 151.957 49.8555 151.957 49.3398C151.957 48.793 151.855 48.3203 151.652 47.9219C151.449 47.5234 151.141 47.2188 150.727 47.0078C150.312 46.7969 149.793 46.6914 149.168 46.6914H146.32V61H142.805V43.9375ZM152.344 61L148.453 53.3945L152.168 53.3711L156.105 60.8359V61H152.344ZM163.805 61.2344C162.82 61.2344 161.938 61.0781 161.156 60.7656C160.375 60.4453 159.711 60.0039 159.164 59.4414C158.625 58.8789 158.211 58.2266 157.922 57.4844C157.633 56.7344 157.488 55.9375 157.488 55.0938V54.625C157.488 53.6641 157.625 52.7852 157.898 51.9883C158.172 51.1914 158.562 50.5 159.07 49.9141C159.586 49.3281 160.211 48.8789 160.945 48.5664C161.68 48.2461 162.508 48.0859 163.43 48.0859C164.328 48.0859 165.125 48.2344 165.82 48.5312C166.516 48.8281 167.098 49.25 167.566 49.7969C168.043 50.3438 168.402 51 168.645 51.7656C168.887 52.5234 169.008 53.3672 169.008 54.2969V55.7031H158.93V53.4531H165.691V53.1953C165.691 52.7266 165.605 52.3086 165.434 51.9414C165.27 51.5664 165.02 51.2695 164.684 51.0508C164.348 50.832 163.918 50.7227 163.395 50.7227C162.949 50.7227 162.566 50.8203 162.246 51.0156C161.926 51.2109 161.664 51.4844 161.461 51.8359C161.266 52.1875 161.117 52.6016 161.016 53.0781C160.922 53.5469 160.875 54.0625 160.875 54.625V55.0938C160.875 55.6016 160.945 56.0703 161.086 56.5C161.234 56.9297 161.441 57.3008 161.707 57.6133C161.98 57.9258 162.309 58.168 162.691 58.3398C163.082 58.5117 163.523 58.5977 164.016 58.5977C164.625 58.5977 165.191 58.4805 165.715 58.2461C166.246 58.0039 166.703 57.6406 167.086 57.1562L168.727 58.9375C168.461 59.3203 168.098 59.6875 167.637 60.0391C167.184 60.3906 166.637 60.6797 165.996 60.9062C165.355 61.125 164.625 61.2344 163.805 61.2344ZM177.785 57.4961C177.785 57.2539 177.715 57.0352 177.574 56.8398C177.434 56.6445 177.172 56.4648 176.789 56.3008C176.414 56.1289 175.871 55.9727 175.16 55.832C174.52 55.6914 173.922 55.5156 173.367 55.3047C172.82 55.0859 172.344 54.8242 171.938 54.5195C171.539 54.2148 171.227 53.8555 171 53.4414C170.773 53.0195 170.66 52.5391 170.66 52C170.66 51.4688 170.773 50.9688 171 50.5C171.234 50.0312 171.566 49.6172 171.996 49.2578C172.434 48.8906 172.965 48.6055 173.59 48.4023C174.223 48.1914 174.934 48.0859 175.723 48.0859C176.824 48.0859 177.77 48.2617 178.559 48.6133C179.355 48.9648 179.965 49.4492 180.387 50.0664C180.816 50.6758 181.031 51.3711 181.031 52.1523H177.656C177.656 51.8242 177.586 51.5312 177.445 51.2734C177.312 51.0078 177.102 50.8008 176.812 50.6523C176.531 50.4961 176.164 50.418 175.711 50.418C175.336 50.418 175.012 50.4844 174.738 50.6172C174.465 50.7422 174.254 50.9141 174.105 51.1328C173.965 51.3438 173.895 51.5781 173.895 51.8359C173.895 52.0312 173.934 52.207 174.012 52.3633C174.098 52.5117 174.234 52.6484 174.422 52.7734C174.609 52.8984 174.852 53.0156 175.148 53.125C175.453 53.2266 175.828 53.3203 176.273 53.4062C177.188 53.5938 178.004 53.8398 178.723 54.1445C179.441 54.4414 180.012 54.8477 180.434 55.3633C180.855 55.8711 181.066 56.5391 181.066 57.3672C181.066 57.9297 180.941 58.4453 180.691 58.9141C180.441 59.3828 180.082 59.793 179.613 60.1445C179.145 60.4883 178.582 60.7578 177.926 60.9531C177.277 61.1406 176.547 61.2344 175.734 61.2344C174.555 61.2344 173.555 61.0234 172.734 60.6016C171.922 60.1797 171.305 59.6445 170.883 58.9961C170.469 58.3398 170.262 57.668 170.262 56.9805H173.461C173.477 57.4414 173.594 57.8125 173.812 58.0938C174.039 58.375 174.324 58.5781 174.668 58.7031C175.02 58.8281 175.398 58.8906 175.805 58.8906C176.242 58.8906 176.605 58.832 176.895 58.7148C177.184 58.5898 177.402 58.4258 177.551 58.2227C177.707 58.0117 177.785 57.7695 177.785 57.4961ZM189.469 48.3203V50.7109H182.086V48.3203H189.469ZM183.914 45.1914H187.289V57.1797C187.289 57.5469 187.336 57.8281 187.43 58.0234C187.531 58.2188 187.68 58.3555 187.875 58.4336C188.07 58.5039 188.316 58.5391 188.613 58.5391C188.824 58.5391 189.012 58.5312 189.176 58.5156C189.348 58.4922 189.492 58.4688 189.609 58.4453L189.621 60.9297C189.332 61.0234 189.02 61.0977 188.684 61.1523C188.348 61.207 187.977 61.2344 187.57 61.2344C186.828 61.2344 186.18 61.1133 185.625 60.8711C185.078 60.6211 184.656 60.2227 184.359 59.6758C184.062 59.1289 183.914 58.4102 183.914 57.5195V45.1914ZM190.547 54.7891V54.543C190.547 53.6133 190.68 52.7578 190.945 51.9766C191.211 51.1875 191.598 50.5039 192.105 49.9258C192.613 49.3477 193.238 48.8984 193.98 48.5781C194.723 48.25 195.574 48.0859 196.535 48.0859C197.496 48.0859 198.352 48.25 199.102 48.5781C199.852 48.8984 200.48 49.3477 200.988 49.9258C201.504 50.5039 201.895 51.1875 202.16 51.9766C202.426 52.7578 202.559 53.6133 202.559 54.543V54.7891C202.559 55.7109 202.426 56.5664 202.16 57.3555C201.895 58.1367 201.504 58.8203 200.988 59.4062C200.48 59.9844 199.855 60.4336 199.113 60.7539C198.371 61.0742 197.52 61.2344 196.559 61.2344C195.598 61.2344 194.742 61.0742 193.992 60.7539C193.25 60.4336 192.621 59.9844 192.105 59.4062C191.598 58.8203 191.211 58.1367 190.945 57.3555C190.68 56.5664 190.547 55.7109 190.547 54.7891ZM193.922 54.543V54.7891C193.922 55.3203 193.969 55.8164 194.062 56.2773C194.156 56.7383 194.305 57.1445 194.508 57.4961C194.719 57.8398 194.992 58.1094 195.328 58.3047C195.664 58.5 196.074 58.5977 196.559 58.5977C197.027 58.5977 197.43 58.5 197.766 58.3047C198.102 58.1094 198.371 57.8398 198.574 57.4961C198.777 57.1445 198.926 56.7383 199.02 56.2773C199.121 55.8164 199.172 55.3203 199.172 54.7891V54.543C199.172 54.0273 199.121 53.543 199.02 53.0898C198.926 52.6289 198.773 52.2227 198.562 51.8711C198.359 51.5117 198.09 51.2305 197.754 51.0273C197.418 50.8242 197.012 50.7227 196.535 50.7227C196.059 50.7227 195.652 50.8242 195.316 51.0273C194.988 51.2305 194.719 51.5117 194.508 51.8711C194.305 52.2227 194.156 52.6289 194.062 53.0898C193.969 53.543 193.922 54.0273 193.922 54.543Z" fill="#888888"/>
<path d="M118.594 98.4219V104.75H101.086V98.4219H118.594ZM103.828 84.875V119H95.6016V84.875H103.828ZM124.125 84.875V119H115.922V84.875H124.125ZM127.992 106.578V106.086C127.992 104.227 128.258 102.516 128.789 100.953C129.32 99.375 130.102 98.0078 131.133 96.8516C132.164 95.6953 133.438 94.7969 134.953 94.1562C136.469 93.5 138.219 93.1719 140.203 93.1719C142.203 93.1719 143.961 93.5 145.477 94.1562C147.008 94.7969 148.289 95.6953 149.32 96.8516C150.352 98.0078 151.133 99.375 151.664 100.953C152.195 102.516 152.461 104.227 152.461 106.086V106.578C152.461 108.422 152.195 110.133 151.664 111.711C151.133 113.273 150.352 114.641 149.32 115.812C148.289 116.969 147.016 117.867 145.5 118.508C143.984 119.148 142.234 119.469 140.25 119.469C138.266 119.469 136.508 119.148 134.977 118.508C133.445 117.867 132.164 116.969 131.133 115.812C130.102 114.641 129.32 113.273 128.789 111.711C128.258 110.133 127.992 108.422 127.992 106.578ZM135.891 106.086V106.578C135.891 107.531 135.961 108.422 136.102 109.25C136.242 110.078 136.477 110.805 136.805 111.43C137.133 112.039 137.578 112.516 138.141 112.859C138.703 113.203 139.406 113.375 140.25 113.375C141.078 113.375 141.766 113.203 142.312 112.859C142.875 112.516 143.32 112.039 143.648 111.43C143.977 110.805 144.211 110.078 144.352 109.25C144.492 108.422 144.562 107.531 144.562 106.578V106.086C144.562 105.164 144.492 104.297 144.352 103.484C144.211 102.656 143.977 101.93 143.648 101.305C143.32 100.664 142.875 100.164 142.312 99.8047C141.75 99.4453 141.047 99.2656 140.203 99.2656C139.375 99.2656 138.68 99.4453 138.117 99.8047C137.57 100.164 137.133 100.664 136.805 101.305C136.477 101.93 136.242 102.656 136.102 103.484C135.961 104.297 135.891 105.164 135.891 106.086ZM163.688 111.453L168.375 93.6406H173.32L171.562 102.57L166.922 119H162.961L163.688 111.453ZM161.836 93.6406L164.742 111.312L165.07 119H160.266L154.266 93.6406H161.836ZM177.492 110.938L180.422 93.6406H187.992L182.039 119H177.234L177.492 110.938ZM173.883 93.6406L178.617 111.406L179.344 119H175.336L170.789 102.617L169.102 93.6406H173.883ZM218.297 84.875V119H210.07V84.875H218.297ZM228.562 84.875V91.2266H200.039V84.875H228.562ZM225.773 106.578V106.086C225.773 104.227 226.039 102.516 226.57 100.953C227.102 99.375 227.883 98.0078 228.914 96.8516C229.945 95.6953 231.219 94.7969 232.734 94.1562C234.25 93.5 236 93.1719 237.984 93.1719C239.984 93.1719 241.742 93.5 243.258 94.1562C244.789 94.7969 246.07 95.6953 247.102 96.8516C248.133 98.0078 248.914 99.375 249.445 100.953C249.977 102.516 250.242 104.227 250.242 106.086V106.578C250.242 108.422 249.977 110.133 249.445 111.711C248.914 113.273 248.133 114.641 247.102 115.812C246.07 116.969 244.797 117.867 243.281 118.508C241.766 119.148 240.016 119.469 238.031 119.469C236.047 119.469 234.289 119.148 232.758 118.508C231.227 117.867 229.945 116.969 228.914 115.812C227.883 114.641 227.102 113.273 226.57 111.711C226.039 110.133 225.773 108.422 225.773 106.578ZM233.672 106.086V106.578C233.672 107.531 233.742 108.422 233.883 109.25C234.023 110.078 234.258 110.805 234.586 111.43C234.914 112.039 235.359 112.516 235.922 112.859C236.484 113.203 237.188 113.375 238.031 113.375C238.859 113.375 239.547 113.203 240.094 112.859C240.656 112.516 241.102 112.039 241.43 111.43C241.758 110.805 241.992 110.078 242.133 109.25C242.273 108.422 242.344 107.531 242.344 106.578V106.086C242.344 105.164 242.273 104.297 242.133 103.484C241.992 102.656 241.758 101.93 241.43 101.305C241.102 100.664 240.656 100.164 240.094 99.8047C239.531 99.4453 238.828 99.2656 237.984 99.2656C237.156 99.2656 236.461 99.4453 235.898 99.8047C235.352 100.164 234.914 100.664 234.586 101.305C234.258 101.93 234.023 102.656 233.883 103.484C233.742 104.297 233.672 105.164 233.672 106.086ZM266.086 84.875H279.516C282.141 84.875 284.422 85.2656 286.359 86.0469C288.297 86.8281 289.789 87.9844 290.836 89.5156C291.898 91.0469 292.43 92.9375 292.43 95.1875C292.43 97.1406 292.125 98.7734 291.516 100.086C290.906 101.398 290.055 102.484 288.961 103.344C287.883 104.188 286.625 104.883 285.188 105.43L282.492 106.953H271.219L271.172 100.602H279.516C280.562 100.602 281.43 100.414 282.117 100.039C282.805 99.6641 283.32 99.1328 283.664 98.4453C284.023 97.7422 284.203 96.9062 284.203 95.9375C284.203 94.9531 284.023 94.1094 283.664 93.4062C283.305 92.7031 282.773 92.1641 282.07 91.7891C281.383 91.4141 280.531 91.2266 279.516 91.2266H274.312V119H266.086V84.875ZM284.766 119L277.219 103.906L285.938 103.859L293.578 118.648V119H284.766ZM311.836 112.836V93.6406H319.758V119H312.352L311.836 112.836ZM312.586 107.68L314.648 107.633C314.648 109.336 314.445 110.914 314.039 112.367C313.633 113.805 313.031 115.055 312.234 116.117C311.453 117.18 310.484 118.008 309.328 118.602C308.188 119.18 306.867 119.469 305.367 119.469C304.117 119.469 302.969 119.297 301.922 118.953C300.891 118.594 300 118.039 299.25 117.289C298.5 116.523 297.914 115.547 297.492 114.359C297.086 113.156 296.883 111.719 296.883 110.047V93.6406H304.781V110.094C304.781 110.656 304.852 111.141 304.992 111.547C305.133 111.953 305.336 112.297 305.602 112.578C305.867 112.844 306.195 113.047 306.586 113.188C306.992 113.312 307.453 113.375 307.969 113.375C309.156 113.375 310.086 113.125 310.758 112.625C311.43 112.125 311.898 111.445 312.164 110.586C312.445 109.727 312.586 108.758 312.586 107.68ZM331.875 99.0547V119H323.977V93.6406H331.383L331.875 99.0547ZM330.938 105.453L329.086 105.5C329.086 103.562 329.32 101.836 329.789 100.32C330.258 98.7891 330.922 97.4922 331.781 96.4297C332.641 95.3672 333.664 94.5625 334.852 94.0156C336.055 93.4531 337.391 93.1719 338.859 93.1719C340.031 93.1719 341.102 93.3438 342.07 93.6875C343.055 94.0312 343.898 94.5859 344.602 95.3516C345.32 96.1172 345.867 97.1328 346.242 98.3984C346.633 99.6484 346.828 101.195 346.828 103.039V119H338.883V103.016C338.883 102 338.742 101.227 338.461 100.695C338.18 100.148 337.773 99.7734 337.242 99.5703C336.711 99.3672 336.062 99.2656 335.297 99.2656C334.484 99.2656 333.797 99.4219 333.234 99.7344C332.672 100.047 332.219 100.484 331.875 101.047C331.547 101.594 331.305 102.242 331.148 102.992C331.008 103.742 330.938 104.562 330.938 105.453ZM363.773 108.195H357.047C357.047 106.82 357.141 105.609 357.328 104.562C357.531 103.5 357.875 102.547 358.359 101.703C358.844 100.859 359.5 100.078 360.328 99.3594C361.062 98.75 361.695 98.1641 362.227 97.6016C362.758 97.0391 363.164 96.4688 363.445 95.8906C363.727 95.3125 363.867 94.6953 363.867 94.0391C363.867 93.2266 363.75 92.5625 363.516 92.0469C363.297 91.5312 362.961 91.1484 362.508 90.8984C362.07 90.6328 361.516 90.5 360.844 90.5C360.297 90.5 359.781 90.6328 359.297 90.8984C358.828 91.1641 358.445 91.5781 358.148 92.1406C357.852 92.6875 357.688 93.4141 357.656 94.3203H349.711C349.758 91.9922 350.273 90.1016 351.258 88.6484C352.258 87.1797 353.586 86.1094 355.242 85.4375C356.914 84.75 358.781 84.4062 360.844 84.4062C363.125 84.4062 365.086 84.7578 366.727 85.4609C368.367 86.1641 369.625 87.2109 370.5 88.6016C371.375 89.9766 371.812 91.6719 371.812 93.6875C371.812 95.0312 371.555 96.2031 371.039 97.2031C370.539 98.1875 369.859 99.1094 369 99.9688C368.156 100.812 367.211 101.719 366.164 102.688C365.258 103.484 364.641 104.297 364.312 105.125C363.984 105.938 363.805 106.961 363.773 108.195ZM356.086 115.32C356.086 114.195 356.492 113.258 357.305 112.508C358.117 111.742 359.172 111.359 360.469 111.359C361.766 111.359 362.82 111.742 363.633 112.508C364.445 113.258 364.852 114.195 364.852 115.32C364.852 116.445 364.445 117.391 363.633 118.156C362.82 118.906 361.766 119.281 360.469 119.281C359.172 119.281 358.117 118.906 357.305 118.156C356.492 117.391 356.086 116.445 356.086 115.32Z" fill="black"/>
<path d="M1134 0H1348C1356.28 0 1363 6.71573 1363 15V148C1363 156.284 1356.28 163 1348 163H1134V0Z" fill="#D43325"/>
<path d="M1260.62 78.8078C1263.81 78.8078 1266.93 79.7552 1269.59 81.5302C1272.25 83.3052 1274.32 85.8281 1275.54 88.7798C1276.76 91.7315 1277.08 94.9795 1276.46 98.1131C1275.84 101.247 1274.3 104.125 1272.04 106.384C1269.78 108.643 1266.9 110.182 1263.77 110.805C1260.63 111.428 1257.39 111.108 1254.43 109.886C1251.48 108.663 1248.96 106.593 1247.18 103.936C1245.41 101.28 1244.46 98.1565 1244.46 94.9616C1244.46 90.6774 1246.16 86.5686 1249.19 83.5392C1252.22 80.5097 1256.33 78.8078 1260.62 78.8078ZM1260.62 73.4232C1256.36 73.4232 1252.19 74.6864 1248.65 77.0531C1245.11 79.4198 1242.35 82.7836 1240.72 86.7192C1239.09 90.6549 1238.66 94.9855 1239.49 99.1636C1240.32 103.342 1242.37 107.179 1245.39 110.192C1248.4 113.204 1252.24 115.255 1256.41 116.086C1260.59 116.917 1264.92 116.491 1268.86 114.861C1272.79 113.23 1276.16 110.47 1278.52 106.928C1280.89 103.386 1282.15 99.2215 1282.15 94.9616C1282.15 89.2493 1279.88 83.7709 1275.85 79.7317C1271.81 75.6924 1266.33 73.4232 1260.62 73.4232Z" fill="white"/>
<path d="M1274.08 46.4999H1220.23C1218.8 46.4999 1217.43 47.0672 1216.42 48.0771C1215.41 49.0869 1214.85 50.4565 1214.85 51.8845V105.731C1214.85 107.159 1215.41 108.528 1216.42 109.538C1217.43 110.548 1218.8 111.115 1220.23 111.115H1231V105.731H1220.23V68.0383H1279.46V51.8845C1279.46 50.4565 1278.89 49.0869 1277.88 48.0771C1276.87 47.0672 1275.5 46.4999 1274.08 46.4999ZM1220.23 62.6537V51.8845H1274.08V62.6537H1220.23Z" fill="white"/>
<path d="M1255.23 86.8848V103.039L1268.69 94.9617L1255.23 86.8848Z" fill="white"/>
</svg>
