<svg width="1363" height="163" viewBox="0 0 1363 163" fill="none" xmlns="http://www.w3.org/2000/svg">
<path d="M0 15C0 6.71573 6.71573 0 15 0H37V163H15C6.71573 163 0 156.284 0 148V15Z" fill="#424242"/>
<rect width="1097" height="163" transform="translate(37)" fill="#F0F0F0"/>
<path d="M101.906 53.9219L94.3945 51.2383V48.0859L104.602 52.375V54.6367L101.906 53.9219ZM94.3945 56.1719L101.918 53.4297L104.602 52.7852V55.0352L94.3945 59.3242V56.1719ZM126.422 52.082V58.8438C126.156 59.1641 125.746 59.5117 125.191 59.8867C124.637 60.2539 123.922 60.5703 123.047 60.8359C122.172 61.1016 121.113 61.2344 119.871 61.2344C118.77 61.2344 117.766 61.0547 116.859 60.6953C115.953 60.3281 115.172 59.793 114.516 59.0898C113.867 58.3867 113.367 57.5273 113.016 56.5117C112.664 55.4883 112.488 54.3203 112.488 53.0078V51.9414C112.488 50.6289 112.656 49.4609 112.992 48.4375C113.336 47.4141 113.824 46.5508 114.457 45.8477C115.09 45.1445 115.844 44.6094 116.719 44.2422C117.594 43.875 118.566 43.6914 119.637 43.6914C121.121 43.6914 122.34 43.9336 123.293 44.418C124.246 44.8945 124.973 45.5586 125.473 46.4102C125.98 47.2539 126.293 48.2227 126.41 49.3164H123C122.914 48.7383 122.75 48.2344 122.508 47.8047C122.266 47.375 121.918 47.0391 121.465 46.7969C121.02 46.5547 120.441 46.4336 119.73 46.4336C119.145 46.4336 118.621 46.5547 118.16 46.7969C117.707 47.0312 117.324 47.3789 117.012 47.8398C116.699 48.3008 116.461 48.8711 116.297 49.5508C116.133 50.2305 116.051 51.0195 116.051 51.918V53.0078C116.051 53.8984 116.137 54.6875 116.309 55.375C116.48 56.0547 116.734 56.6289 117.07 57.0977C117.414 57.5586 117.836 57.9062 118.336 58.1406C118.836 58.375 119.418 58.4922 120.082 58.4922C120.637 58.4922 121.098 58.4453 121.465 58.3516C121.84 58.2578 122.141 58.1445 122.367 58.0117C122.602 57.8711 122.781 57.7383 122.906 57.6133V54.5898H119.695V52.082H126.422ZM128.508 54.7891V54.543C128.508 53.6133 128.641 52.7578 128.906 51.9766C129.172 51.1875 129.559 50.5039 130.066 49.9258C130.574 49.3477 131.199 48.8984 131.941 48.5781C132.684 48.25 133.535 48.0859 134.496 48.0859C135.457 48.0859 136.312 48.25 137.062 48.5781C137.812 48.8984 138.441 49.3477 138.949 49.9258C139.465 50.5039 139.855 51.1875 140.121 51.9766C140.387 52.7578 140.52 53.6133 140.52 54.543V54.7891C140.52 55.7109 140.387 56.5664 140.121 57.3555C139.855 58.1367 139.465 58.8203 138.949 59.4062C138.441 59.9844 137.816 60.4336 137.074 60.7539C136.332 61.0742 135.48 61.2344 134.52 61.2344C133.559 61.2344 132.703 61.0742 131.953 60.7539C131.211 60.4336 130.582 59.9844 130.066 59.4062C129.559 58.8203 129.172 58.1367 128.906 57.3555C128.641 56.5664 128.508 55.7109 128.508 54.7891ZM131.883 54.543V54.7891C131.883 55.3203 131.93 55.8164 132.023 56.2773C132.117 56.7383 132.266 57.1445 132.469 57.4961C132.68 57.8398 132.953 58.1094 133.289 58.3047C133.625 58.5 134.035 58.5977 134.52 58.5977C134.988 58.5977 135.391 58.5 135.727 58.3047C136.062 58.1094 136.332 57.8398 136.535 57.4961C136.738 57.1445 136.887 56.7383 136.98 56.2773C137.082 55.8164 137.133 55.3203 137.133 54.7891V54.543C137.133 54.0273 137.082 53.543 136.98 53.0898C136.887 52.6289 136.734 52.2227 136.523 51.8711C136.32 51.5117 136.051 51.2305 135.715 51.0273C135.379 50.8242 134.973 50.7227 134.496 50.7227C134.02 50.7227 133.613 50.8242 133.277 51.0273C132.949 51.2305 132.68 51.5117 132.469 51.8711C132.266 52.2227 132.117 52.6289 132.023 53.0898C131.93 53.543 131.883 54.0273 131.883 54.543ZM142.805 43.9375H149.168C150.473 43.9375 151.594 44.1328 152.531 44.5234C153.477 44.9141 154.203 45.4922 154.711 46.2578C155.219 47.0234 155.473 47.9648 155.473 49.082C155.473 49.9961 155.316 50.7812 155.004 51.4375C154.699 52.0859 154.266 52.6289 153.703 53.0664C153.148 53.4961 152.496 53.8398 151.746 54.0977L150.633 54.6836H145.102L145.078 51.9414H149.191C149.809 51.9414 150.32 51.832 150.727 51.6133C151.133 51.3945 151.438 51.0898 151.641 50.6992C151.852 50.3086 151.957 49.8555 151.957 49.3398C151.957 48.793 151.855 48.3203 151.652 47.9219C151.449 47.5234 151.141 47.2188 150.727 47.0078C150.312 46.7969 149.793 46.6914 149.168 46.6914H146.32V61H142.805V43.9375ZM152.344 61L148.453 53.3945L152.168 53.3711L156.105 60.8359V61H152.344ZM163.805 61.2344C162.82 61.2344 161.938 61.0781 161.156 60.7656C160.375 60.4453 159.711 60.0039 159.164 59.4414C158.625 58.8789 158.211 58.2266 157.922 57.4844C157.633 56.7344 157.488 55.9375 157.488 55.0938V54.625C157.488 53.6641 157.625 52.7852 157.898 51.9883C158.172 51.1914 158.562 50.5 159.07 49.9141C159.586 49.3281 160.211 48.8789 160.945 48.5664C161.68 48.2461 162.508 48.0859 163.43 48.0859C164.328 48.0859 165.125 48.2344 165.82 48.5312C166.516 48.8281 167.098 49.25 167.566 49.7969C168.043 50.3438 168.402 51 168.645 51.7656C168.887 52.5234 169.008 53.3672 169.008 54.2969V55.7031H158.93V53.4531H165.691V53.1953C165.691 52.7266 165.605 52.3086 165.434 51.9414C165.27 51.5664 165.02 51.2695 164.684 51.0508C164.348 50.832 163.918 50.7227 163.395 50.7227C162.949 50.7227 162.566 50.8203 162.246 51.0156C161.926 51.2109 161.664 51.4844 161.461 51.8359C161.266 52.1875 161.117 52.6016 161.016 53.0781C160.922 53.5469 160.875 54.0625 160.875 54.625V55.0938C160.875 55.6016 160.945 56.0703 161.086 56.5C161.234 56.9297 161.441 57.3008 161.707 57.6133C161.98 57.9258 162.309 58.168 162.691 58.3398C163.082 58.5117 163.523 58.5977 164.016 58.5977C164.625 58.5977 165.191 58.4805 165.715 58.2461C166.246 58.0039 166.703 57.6406 167.086 57.1562L168.727 58.9375C168.461 59.3203 168.098 59.6875 167.637 60.0391C167.184 60.3906 166.637 60.6797 165.996 60.9062C165.355 61.125 164.625 61.2344 163.805 61.2344ZM177.785 57.4961C177.785 57.2539 177.715 57.0352 177.574 56.8398C177.434 56.6445 177.172 56.4648 176.789 56.3008C176.414 56.1289 175.871 55.9727 175.16 55.832C174.52 55.6914 173.922 55.5156 173.367 55.3047C172.82 55.0859 172.344 54.8242 171.938 54.5195C171.539 54.2148 171.227 53.8555 171 53.4414C170.773 53.0195 170.66 52.5391 170.66 52C170.66 51.4688 170.773 50.9688 171 50.5C171.234 50.0312 171.566 49.6172 171.996 49.2578C172.434 48.8906 172.965 48.6055 173.59 48.4023C174.223 48.1914 174.934 48.0859 175.723 48.0859C176.824 48.0859 177.77 48.2617 178.559 48.6133C179.355 48.9648 179.965 49.4492 180.387 50.0664C180.816 50.6758 181.031 51.3711 181.031 52.1523H177.656C177.656 51.8242 177.586 51.5312 177.445 51.2734C177.312 51.0078 177.102 50.8008 176.812 50.6523C176.531 50.4961 176.164 50.418 175.711 50.418C175.336 50.418 175.012 50.4844 174.738 50.6172C174.465 50.7422 174.254 50.9141 174.105 51.1328C173.965 51.3438 173.895 51.5781 173.895 51.8359C173.895 52.0312 173.934 52.207 174.012 52.3633C174.098 52.5117 174.234 52.6484 174.422 52.7734C174.609 52.8984 174.852 53.0156 175.148 53.125C175.453 53.2266 175.828 53.3203 176.273 53.4062C177.188 53.5938 178.004 53.8398 178.723 54.1445C179.441 54.4414 180.012 54.8477 180.434 55.3633C180.855 55.8711 181.066 56.5391 181.066 57.3672C181.066 57.9297 180.941 58.4453 180.691 58.9141C180.441 59.3828 180.082 59.793 179.613 60.1445C179.145 60.4883 178.582 60.7578 177.926 60.9531C177.277 61.1406 176.547 61.2344 175.734 61.2344C174.555 61.2344 173.555 61.0234 172.734 60.6016C171.922 60.1797 171.305 59.6445 170.883 58.9961C170.469 58.3398 170.262 57.668 170.262 56.9805H173.461C173.477 57.4414 173.594 57.8125 173.812 58.0938C174.039 58.375 174.324 58.5781 174.668 58.7031C175.02 58.8281 175.398 58.8906 175.805 58.8906C176.242 58.8906 176.605 58.832 176.895 58.7148C177.184 58.5898 177.402 58.4258 177.551 58.2227C177.707 58.0117 177.785 57.7695 177.785 57.4961ZM189.469 48.3203V50.7109H182.086V48.3203H189.469ZM183.914 45.1914H187.289V57.1797C187.289 57.5469 187.336 57.8281 187.43 58.0234C187.531 58.2188 187.68 58.3555 187.875 58.4336C188.07 58.5039 188.316 58.5391 188.613 58.5391C188.824 58.5391 189.012 58.5312 189.176 58.5156C189.348 58.4922 189.492 58.4688 189.609 58.4453L189.621 60.9297C189.332 61.0234 189.02 61.0977 188.684 61.1523C188.348 61.207 187.977 61.2344 187.57 61.2344C186.828 61.2344 186.18 61.1133 185.625 60.8711C185.078 60.6211 184.656 60.2227 184.359 59.6758C184.062 59.1289 183.914 58.4102 183.914 57.5195V45.1914ZM190.547 54.7891V54.543C190.547 53.6133 190.68 52.7578 190.945 51.9766C191.211 51.1875 191.598 50.5039 192.105 49.9258C192.613 49.3477 193.238 48.8984 193.98 48.5781C194.723 48.25 195.574 48.0859 196.535 48.0859C197.496 48.0859 198.352 48.25 199.102 48.5781C199.852 48.8984 200.48 49.3477 200.988 49.9258C201.504 50.5039 201.895 51.1875 202.16 51.9766C202.426 52.7578 202.559 53.6133 202.559 54.543V54.7891C202.559 55.7109 202.426 56.5664 202.16 57.3555C201.895 58.1367 201.504 58.8203 200.988 59.4062C200.48 59.9844 199.855 60.4336 199.113 60.7539C198.371 61.0742 197.52 61.2344 196.559 61.2344C195.598 61.2344 194.742 61.0742 193.992 60.7539C193.25 60.4336 192.621 59.9844 192.105 59.4062C191.598 58.8203 191.211 58.1367 190.945 57.3555C190.68 56.5664 190.547 55.7109 190.547 54.7891ZM193.922 54.543V54.7891C193.922 55.3203 193.969 55.8164 194.062 56.2773C194.156 56.7383 194.305 57.1445 194.508 57.4961C194.719 57.8398 194.992 58.1094 195.328 58.3047C195.664 58.5 196.074 58.5977 196.559 58.5977C197.027 58.5977 197.43 58.5 197.766 58.3047C198.102 58.1094 198.371 57.8398 198.574 57.4961C198.777 57.1445 198.926 56.7383 199.02 56.2773C199.121 55.8164 199.172 55.3203 199.172 54.7891V54.543C199.172 54.0273 199.121 53.543 199.02 53.0898C198.926 52.6289 198.773 52.2227 198.562 51.8711C198.359 51.5117 198.09 51.2305 197.754 51.0273C197.418 50.8242 197.012 50.7227 196.535 50.7227C196.059 50.7227 195.652 50.8242 195.316 51.0273C194.988 51.2305 194.719 51.5117 194.508 51.8711C194.305 52.2227 194.156 52.6289 194.062 53.0898C193.969 53.543 193.922 54.0273 193.922 54.543Z" fill="#888888"/>
<path d="M112.125 84.875V119H103.898V84.875H112.125ZM122.391 84.875V91.2266H93.8672V84.875H122.391ZM135.68 119.469C133.617 119.469 131.773 119.148 130.148 118.508C128.523 117.852 127.148 116.953 126.023 115.812C124.914 114.672 124.062 113.359 123.469 111.875C122.891 110.391 122.602 108.82 122.602 107.164V106.273C122.602 104.414 122.859 102.695 123.375 101.117C123.891 99.5234 124.656 98.1328 125.672 96.9453C126.688 95.7578 127.961 94.8359 129.492 94.1797C131.023 93.5078 132.805 93.1719 134.836 93.1719C136.633 93.1719 138.242 93.4609 139.664 94.0391C141.086 94.6172 142.289 95.4453 143.273 96.5234C144.273 97.6016 145.031 98.9062 145.547 100.438C146.078 101.969 146.344 103.688 146.344 105.594V108.805H125.625V103.859H138.633V103.25C138.648 102.406 138.5 101.688 138.188 101.094C137.891 100.5 137.453 100.047 136.875 99.7344C136.297 99.4219 135.594 99.2656 134.766 99.2656C133.906 99.2656 133.195 99.4531 132.633 99.8281C132.086 100.203 131.656 100.719 131.344 101.375C131.047 102.016 130.836 102.758 130.711 103.602C130.586 104.445 130.523 105.336 130.523 106.273V107.164C130.523 108.102 130.648 108.953 130.898 109.719C131.164 110.484 131.539 111.141 132.023 111.688C132.523 112.219 133.117 112.633 133.805 112.93C134.508 113.227 135.305 113.375 136.195 113.375C137.273 113.375 138.336 113.172 139.383 112.766C140.43 112.359 141.328 111.688 142.078 110.75L145.664 115.016C145.148 115.75 144.414 116.461 143.461 117.148C142.523 117.836 141.398 118.398 140.086 118.836C138.773 119.258 137.305 119.469 135.68 119.469ZM160.266 113.375C161 113.375 161.625 113.242 162.141 112.977C162.672 112.695 163.07 112.305 163.336 111.805C163.617 111.289 163.75 110.672 163.734 109.953H171.164C171.18 111.859 170.711 113.531 169.758 114.969C168.82 116.391 167.539 117.5 165.914 118.297C164.305 119.078 162.484 119.469 160.453 119.469C158.469 119.469 156.734 119.148 155.25 118.508C153.766 117.852 152.523 116.945 151.523 115.789C150.539 114.617 149.797 113.25 149.297 111.688C148.812 110.125 148.57 108.43 148.57 106.602V106.062C148.57 104.234 148.812 102.539 149.297 100.977C149.797 99.3984 150.539 98.0312 151.523 96.875C152.523 95.7031 153.758 94.7969 155.227 94.1562C156.711 93.5 158.438 93.1719 160.406 93.1719C162.516 93.1719 164.375 93.5703 165.984 94.3672C167.609 95.1641 168.883 96.3203 169.805 97.8359C170.727 99.3516 171.18 101.188 171.164 103.344H163.734C163.75 102.578 163.633 101.891 163.383 101.281C163.133 100.672 162.742 100.188 162.211 99.8281C161.695 99.4531 161.031 99.2656 160.219 99.2656C159.406 99.2656 158.75 99.4453 158.25 99.8047C157.75 100.164 157.367 100.664 157.102 101.305C156.852 101.93 156.68 102.648 156.586 103.461C156.508 104.273 156.469 105.141 156.469 106.062V106.602C156.469 107.539 156.508 108.422 156.586 109.25C156.68 110.062 156.859 110.781 157.125 111.406C157.391 112.016 157.773 112.5 158.273 112.859C158.773 113.203 159.438 113.375 160.266 113.375ZM182.273 83V119H174.375V83H182.273ZM181.336 105.453L179.484 105.5C179.484 103.719 179.703 102.078 180.141 100.578C180.578 99.0781 181.203 97.7734 182.016 96.6641C182.828 95.5547 183.805 94.6953 184.945 94.0859C186.086 93.4766 187.352 93.1719 188.742 93.1719C189.992 93.1719 191.133 93.3516 192.164 93.7109C193.211 94.0703 194.109 94.6484 194.859 95.4453C195.625 96.2422 196.211 97.2812 196.617 98.5625C197.039 99.8438 197.25 101.406 197.25 103.25V119H189.305V103.203C189.305 102.172 189.156 101.375 188.859 100.812C188.578 100.234 188.172 99.8359 187.641 99.6172C187.109 99.3828 186.461 99.2656 185.695 99.2656C184.773 99.2656 184.023 99.4219 183.445 99.7344C182.867 100.047 182.422 100.484 182.109 101.047C181.812 101.594 181.609 102.242 181.5 102.992C181.391 103.742 181.336 104.562 181.336 105.453ZM231.539 109.93C231.539 109.398 231.461 108.922 231.305 108.5C231.148 108.062 230.859 107.656 230.438 107.281C230.016 106.906 229.406 106.531 228.609 106.156C227.828 105.766 226.797 105.359 225.516 104.938C224.016 104.438 222.57 103.875 221.18 103.25C219.789 102.609 218.547 101.867 217.453 101.023C216.359 100.164 215.492 99.1641 214.852 98.0234C214.211 96.8672 213.891 95.5234 213.891 93.9922C213.891 92.5234 214.219 91.2031 214.875 90.0312C215.531 88.8438 216.445 87.8359 217.617 87.0078C218.805 86.1641 220.195 85.5234 221.789 85.0859C223.383 84.6328 225.125 84.4062 227.016 84.4062C229.516 84.4062 231.719 84.8438 233.625 85.7188C235.547 86.5781 237.047 87.8047 238.125 89.3984C239.219 90.9766 239.766 92.8438 239.766 95H231.586C231.586 94.1406 231.406 93.3828 231.047 92.7266C230.703 92.0703 230.18 91.5547 229.477 91.1797C228.773 90.8047 227.891 90.6172 226.828 90.6172C225.797 90.6172 224.93 90.7734 224.227 91.0859C223.523 91.3984 222.992 91.8203 222.633 92.3516C222.273 92.8672 222.094 93.4375 222.094 94.0625C222.094 94.5781 222.234 95.0469 222.516 95.4688C222.812 95.875 223.227 96.2578 223.758 96.6172C224.305 96.9766 224.961 97.3203 225.727 97.6484C226.508 97.9766 227.383 98.2969 228.352 98.6094C230.164 99.1875 231.773 99.8359 233.18 100.555C234.602 101.258 235.797 102.062 236.766 102.969C237.75 103.859 238.492 104.875 238.992 106.016C239.508 107.156 239.766 108.445 239.766 109.883C239.766 111.414 239.469 112.773 238.875 113.961C238.281 115.148 237.43 116.156 236.32 116.984C235.211 117.797 233.883 118.414 232.336 118.836C230.789 119.258 229.062 119.469 227.156 119.469C225.406 119.469 223.68 119.25 221.977 118.812C220.289 118.359 218.758 117.672 217.383 116.75C216.008 115.812 214.906 114.617 214.078 113.164C213.266 111.695 212.859 109.953 212.859 107.938H221.109C221.109 108.938 221.242 109.781 221.508 110.469C221.773 111.156 222.164 111.711 222.68 112.133C223.195 112.539 223.828 112.836 224.578 113.023C225.328 113.195 226.188 113.281 227.156 113.281C228.203 113.281 229.047 113.133 229.688 112.836C230.328 112.523 230.797 112.117 231.094 111.617C231.391 111.102 231.539 110.539 231.539 109.93ZM256.992 93.6406V99.125H241.711V93.6406H256.992ZM244.922 87.3359H252.82V110.727C252.82 111.398 252.898 111.922 253.055 112.297C253.211 112.656 253.477 112.914 253.852 113.07C254.242 113.211 254.758 113.281 255.398 113.281C255.852 113.281 256.227 113.273 256.523 113.258C256.82 113.227 257.102 113.188 257.367 113.141V118.789C256.695 119.008 255.992 119.172 255.258 119.281C254.523 119.406 253.742 119.469 252.914 119.469C251.227 119.469 249.781 119.203 248.578 118.672C247.391 118.141 246.484 117.305 245.859 116.164C245.234 115.023 244.922 113.539 244.922 111.711V87.3359ZM273.305 112.625V102.172C273.305 101.453 273.203 100.836 273 100.32C272.797 99.8047 272.477 99.4062 272.039 99.125C271.602 98.8281 271.016 98.6797 270.281 98.6797C269.688 98.6797 269.18 98.7812 268.758 98.9844C268.336 99.1875 268.016 99.4922 267.797 99.8984C267.578 100.305 267.469 100.82 267.469 101.445H259.57C259.57 100.273 259.828 99.1875 260.344 98.1875C260.875 97.1719 261.625 96.2891 262.594 95.5391C263.578 94.7891 264.75 94.2109 266.109 93.8047C267.484 93.3828 269.016 93.1719 270.703 93.1719C272.719 93.1719 274.516 93.5078 276.094 94.1797C277.688 94.8516 278.945 95.8594 279.867 97.2031C280.789 98.5312 281.25 100.203 281.25 102.219V112.602C281.25 114.258 281.344 115.516 281.531 116.375C281.719 117.219 281.984 117.961 282.328 118.602V119H274.406C274.031 118.219 273.75 117.266 273.562 116.141C273.391 115 273.305 113.828 273.305 112.625ZM274.266 103.508L274.312 107.727H270.82C270.086 107.727 269.461 107.828 268.945 108.031C268.445 108.234 268.039 108.516 267.727 108.875C267.43 109.219 267.211 109.609 267.07 110.047C266.945 110.484 266.883 110.945 266.883 111.43C266.883 111.898 266.992 112.32 267.211 112.695C267.445 113.055 267.758 113.336 268.148 113.539C268.539 113.742 268.977 113.844 269.461 113.844C270.336 113.844 271.078 113.68 271.688 113.352C272.312 113.008 272.789 112.594 273.117 112.109C273.445 111.625 273.609 111.172 273.609 110.75L275.344 113.984C275.031 114.609 274.672 115.242 274.266 115.883C273.875 116.523 273.383 117.117 272.789 117.664C272.211 118.195 271.5 118.633 270.656 118.977C269.812 119.305 268.789 119.469 267.586 119.469C266.023 119.469 264.586 119.148 263.273 118.508C261.977 117.867 260.938 116.977 260.156 115.836C259.375 114.68 258.984 113.352 258.984 111.852C258.984 110.539 259.219 109.367 259.688 108.336C260.172 107.305 260.898 106.43 261.867 105.711C262.836 104.992 264.07 104.445 265.57 104.07C267.07 103.695 268.836 103.508 270.867 103.508H274.266ZM296.344 113.375C297.078 113.375 297.703 113.242 298.219 112.977C298.75 112.695 299.148 112.305 299.414 111.805C299.695 111.289 299.828 110.672 299.812 109.953H307.242C307.258 111.859 306.789 113.531 305.836 114.969C304.898 116.391 303.617 117.5 301.992 118.297C300.383 119.078 298.562 119.469 296.531 119.469C294.547 119.469 292.812 119.148 291.328 118.508C289.844 117.852 288.602 116.945 287.602 115.789C286.617 114.617 285.875 113.25 285.375 111.688C284.891 110.125 284.648 108.43 284.648 106.602V106.062C284.648 104.234 284.891 102.539 285.375 100.977C285.875 99.3984 286.617 98.0312 287.602 96.875C288.602 95.7031 289.836 94.7969 291.305 94.1562C292.789 93.5 294.516 93.1719 296.484 93.1719C298.594 93.1719 300.453 93.5703 302.062 94.3672C303.688 95.1641 304.961 96.3203 305.883 97.8359C306.805 99.3516 307.258 101.188 307.242 103.344H299.812C299.828 102.578 299.711 101.891 299.461 101.281C299.211 100.672 298.82 100.188 298.289 99.8281C297.773 99.4531 297.109 99.2656 296.297 99.2656C295.484 99.2656 294.828 99.4453 294.328 99.8047C293.828 100.164 293.445 100.664 293.18 101.305C292.93 101.93 292.758 102.648 292.664 103.461C292.586 104.273 292.547 105.141 292.547 106.062V106.602C292.547 107.539 292.586 108.422 292.664 109.25C292.758 110.062 292.938 110.781 293.203 111.406C293.469 112.016 293.852 112.5 294.352 112.859C294.852 113.203 295.516 113.375 296.344 113.375ZM318.586 82.9766V119H310.688V82.9766H318.586ZM334.805 93.6406L323.789 106.555L318.023 112.32L314.578 107.305L319.383 101.047L325.336 93.6406H334.805ZM326.344 119L319.57 107.445L325.406 103.297L335.391 119H326.344Z" fill="black"/>
<path d="M1134 0H1348C1356.28 0 1363 6.71573 1363 15V148C1363 156.284 1356.28 163 1348 163H1134V0Z" fill="#D43325"/>
<path fill-rule="evenodd" clip-rule="evenodd" d="M1218.75 53C1218.62 53 1218.49 53.0527 1218.4 53.1464C1218.3 53.2402 1218.25 53.3674 1218.25 53.5V109.5C1218.25 109.633 1218.3 109.76 1218.4 109.854C1218.49 109.947 1218.62 110 1218.75 110H1278.25C1278.38 110 1278.51 109.947 1278.6 109.854C1278.7 109.76 1278.75 109.633 1278.75 109.5V64C1278.75 63.8674 1278.7 63.7402 1278.6 63.6464C1278.51 63.5527 1278.38 63.5 1278.25 63.5H1248.5C1247.61 63.5 1246.77 63.1045 1246.2 62.4206L1238.34 53H1218.75ZM1214.15 48.9038C1215.37 47.6848 1217.03 47 1218.75 47H1239.75C1240.64 47 1241.48 47.3955 1242.05 48.0794L1249.91 57.5H1278.25C1279.97 57.5 1281.63 58.1848 1282.85 59.4038C1284.07 60.6228 1284.75 62.2761 1284.75 64V109.5C1284.75 111.224 1284.07 112.877 1282.85 114.096C1281.63 115.315 1279.97 116 1278.25 116H1218.75C1217.03 116 1215.37 115.315 1214.15 114.096C1212.93 112.877 1212.25 111.224 1212.25 109.5V53.5C1212.25 51.7761 1212.93 50.1228 1214.15 48.9038Z" fill="white"/>
<path fill-rule="evenodd" clip-rule="evenodd" d="M1243.97 75.5251C1245.34 76.892 1245.34 79.108 1243.97 80.4749L1237.7 86.75L1243.97 93.0251C1245.34 94.392 1245.34 96.608 1243.97 97.9749C1242.61 99.3417 1240.39 99.3417 1239.03 97.9749L1230.28 89.2249C1228.91 87.858 1228.91 85.642 1230.28 84.2751L1239.03 75.5251C1240.39 74.1583 1242.61 74.1583 1243.97 75.5251Z" fill="white"/>
<path fill-rule="evenodd" clip-rule="evenodd" d="M1252.28 97.9749C1250.91 96.608 1250.91 94.392 1252.28 93.0251L1258.55 86.75L1252.28 80.4749C1250.91 79.108 1250.91 76.892 1252.28 75.5251C1253.64 74.1583 1255.86 74.1583 1257.22 75.5251L1265.97 84.2751C1267.34 85.642 1267.34 87.858 1265.97 89.2249L1257.22 97.9749C1255.86 99.3417 1253.64 99.3417 1252.28 97.9749Z" fill="white"/>
</svg>
